<?xml version="1.0" encoding="UTF-8"?>
<svg width="390" height="844" viewBox="0 0 390 844" fill="none" xmlns="http://www.w3.org/2000/svg">
  <!-- Background -->
  <rect width="390" height="844" fill="#0E0F13"/>

  <!-- Header -->
  <g id="header">
    <rect x="16" y="24" width="358" height="64" rx="12" fill="#151923" stroke="#2A2F3C"/>
    <text x="28" y="52" fill="#E9E9EA" font-family="Inter, Segoe UI, Roboto" font-size="16" font-weight="600">سلام علی! – پنجشنبه 14</text>
    <rect x="28" y="58" width="200" height="20" rx="10" fill="#1C2230"/>
    <text x="36" y="72" fill="#9AA3B2" font-family="Inter, Segoe UI, Roboto" font-size="12">جستجو...</text>
    <circle cx="354" cy="56" r="16" fill="#1C2230" stroke="#2A2F3C"/>
  </g>

  <!-- KPI Cards -->
  <g id="kpis">
    <rect x="16" y="104" width="170" height="90" rx="14" fill="#151923" stroke="#2A2F3C"/>
    <text x="28" y="130" fill="#9AA3B2" font-family="Inter, Segoe UI, Roboto" font-size="12">Calories Burned</text>
    <text x="28" y="160" fill="#D9B25E" font-family="Inter, Segoe UI, Roboto" font-size="22" font-weight="700">642 kcal</text>

    <rect x="204" y="104" width="170" height="90" rx="14" fill="#151923" stroke="#2A2F3C"/>
    <text x="216" y="130" fill="#9AA3B2" font-family="Inter, Segoe UI, Roboto" font-size="12">Steps</text>
    <text x="216" y="160" fill="#D9B25E" font-family="Inter, Segoe UI, Roboto" font-size="22" font-weight="700">8,214</text>

    <rect x="16" y="204" width="170" height="90" rx="14" fill="#151923" stroke="#2A2F3C"/>
    <text x="28" y="230" fill="#9AA3B2" font-family="Inter, Segoe UI, Roboto" font-size="12">Workouts This Week</text>
    <text x="28" y="260" fill="#D9B25E" font-family="Inter, Segoe UI, Roboto" font-size="22" font-weight="700">3/5</text>

    <rect x="204" y="204" width="170" height="90" rx="14" fill="#151923" stroke="#2A2F3C"/>
    <text x="216" y="230" fill="#9AA3B2" font-family="Inter, Segoe UI, Roboto" font-size="12">Body Weight</text>
    <text x="216" y="260" fill="#D9B25E" font-family="Inter, Segoe UI, Roboto" font-size="22" font-weight="700">78.6 kg</text>
  </g>

  <!-- Insights: Activity Chart Placeholder -->
  <g id="activity">
    <rect x="16" y="312" width="358" height="140" rx="14" fill="#151923" stroke="#2A2F3C"/>
    <text x="28" y="336" fill="#E9E9EA" font-family="Inter, Segoe UI, Roboto" font-size="14" font-weight="600">Weekly Activity</text>
    <!-- simple sparkline -->
    <polyline points="28,420 60,380 92,400 124,360 156,372 188,348 220,356 252,330 284,342 316,320 348,334"
              fill="none" stroke="#D9B25E" stroke-width="2"/>
    <line x1="28" y1="430" x2="348" y2="430" stroke="#2A2F3C" stroke-width="1"/>
  </g>

  <!-- Insights: Macros Donut Placeholder -->
  <g id="macros">
    <rect x="16" y="462" width="358" height="140" rx="14" fill="#151923" stroke="#2A2F3C"/>
    <text x="28" y="486" fill="#E9E9EA" font-family="Inter, Segoe UI, Roboto" font-size="14" font-weight="600">Nutrition Macros</text>
    <circle cx="92" cy="532" r="42" fill="#0E0F13" stroke="#2A2F3C" stroke-width="10"/>
    <path d="M92 490 A42 42 0 0 1 132 514" stroke="#5DADEC" stroke-width="10" fill="none"/>
    <path d="M132 514 A42 42 0 0 1 110 570" stroke="#77DD77" stroke-width="10" fill="none"/>
    <path d="M110 570 A42 42 0 0 1 92 490" stroke="#D9B25E" stroke-width="10" fill="none"/>
    <rect x="160" y="504" width="200" height="56" rx="8" fill="#1C2230"/>
    <text x="172" y="528" fill="#9AA3B2" font-family="Inter, Segoe UI, Roboto" font-size="12">Carb 45% • Protein 30% • Fat 25%</text>
  </g>

  <!-- Recent Activity -->
  <g id="recent">
    <text x="20" y="624" fill="#E9E9EA" font-family="Inter, Segoe UI, Roboto" font-size="14" font-weight="600">Recent Activity</text>
    <rect x="16" y="636" width="358" height="44" rx="10" fill="#151923" stroke="#2A2F3C"/>
    <text x="28" y="662" fill="#E9E9EA" font-family="Inter, Segoe UI, Roboto" font-size="13">Workout • Push Day • 42 min</text>
    <rect x="16" y="684" width="358" height="44" rx="10" fill="#151923" stroke="#2A2F3C"/>
    <text x="28" y="710" fill="#E9E9EA" font-family="Inter, Segoe UI, Roboto" font-size="13">Meal • Chicken Bowl • 520 kcal</text>
  </g>

  <!-- Quick Actions -->
  <g id="actions">
    <rect x="16" y="736" width="110" height="36" rx="10" fill="#D9B25E"/>
    <text x="32" y="759" fill="#0E0F13" font-family="Inter, Segoe UI, Roboto" font-size="12" font-weight="700">Start Workout</text>
    <rect x="140" y="736" width="110" height="36" rx="10" fill="#1C2230" stroke="#2A2F3C"/>
    <text x="164" y="759" fill="#E9E9EA" font-family="Inter, Segoe UI, Roboto" font-size="12" font-weight="600">Log Meal</text>
    <rect x="264" y="736" width="110" height="36" rx="10" fill="#1C2230" stroke="#2A2F3C"/>
    <text x="282" y="759" fill="#E9E9EA" font-family="Inter, Segoe UI, Roboto" font-size="12" font-weight="600">Scan Barcode</text>
  </g>

  <!-- Bottom Navigation -->
  <g id="bottom-nav">
    <rect x="0" y="792" width="390" height="52" fill="#11141B"/>
    <text x="48" y="823" fill="#D9B25E" font-family="Inter, Segoe UI, Roboto" font-size="12" font-weight="700">Home</text>
    <text x="134" y="823" fill="#9AA3B2" font-family="Inter, Segoe UI, Roboto" font-size="12">Plans</text>
    <text x="220" y="823" fill="#9AA3B2" font-family="Inter, Segoe UI, Roboto" font-size="12">Nutrition</text>
    <text x="310" y="823" fill="#9AA3B2" font-family="Inter, Segoe UI, Roboto" font-size="12">Profile</text>
  </g>
</svg>


